PathFileType	4	(X/Y/Z)	Kaydara	
DataRate	CameraRate	NumFrames	NumMarkers	Units	OrigDataRate	OrigDataStartFrame	OrigNumFrames	
120.00	120.00	4	72	mm	120.00	202	268	
Frame#	Time	Hips			RightUpLeg			RightLeg			RightFoot			RightFoot_End			LeftUpLeg			LeftLeg			LeftFoot			LeftFoot_End			Spine			Spine1			Spine2			Spine3			Neck			Head			Head_End			RightShoulder			RightArm			RightForeArm			RightHand			RightHandThumb1			RightHandThumb2			RightHandThumb3			RightHandThumb3_End			RightInHandIndex			RightHandIndex1			RightHandIndex2			RightHandIndex3			RightHandIndex3_End			RightInHandMiddle			RightHandMiddle1			RightHandMiddle2			RightHandMiddle3			RightHandMiddle3_End			RightInHandRing			RightHandRing1			RightHandRing2			RightHandRing3			RightHandRing3_End			RightInHandPinky			RightHandPinky1			RightHandPinky2			RightHandPinky3			RightHandPinky3_End			LeftShoulder			LeftArm			LeftForeArm			LeftHand			LeftHandThumb1			LeftHandThumb2			LeftHandThumb3			LeftHandThumb3_End			LeftInHandIndex			LeftHandIndex1			LeftHandIndex2			LeftHandIndex3			LeftHandIndex3_End			LeftInHandMiddle			LeftHandMiddle1			LeftHandMiddle2			LeftHandMiddle3			LeftHandMiddle3_End			LeftInHandRing			LeftHandRing1			LeftHandRing2			LeftHandRing3			LeftHandRing3_End			LeftInHandPinky			LeftHandPinky1			LeftHandPinky2			LeftHandPinky3			LeftHandPinky3_End			
		X1	Y1	Z1	X2	Y2	Z2	X3	Y3	Z3	X4	Y4	Z4	X5	Y5	Z5	X6	Y6	Z6	X7	Y7	Z7	X8	Y8	Z8	X9	Y9	Z9	X10	Y10	Z10	X11	Y11	Z11	X12	Y12	Z12	X13	Y13	Z13	X14	Y14	Z14	X15	Y15	Z15	X16	Y16	Z16	X17	Y17	Z17	X18	Y18	Z18	X19	Y19	Z19	X20	Y20	Z20	X21	Y21	Z21	X22	Y22	Z22	X23	Y23	Z23	X24	Y24	Z24	X25	Y25	Z25	X26	Y26	Z26	X27	Y27	Z27	X28	Y28	Z28	X29	Y29	Z29	X30	Y30	Z30	X31	Y31	Z31	X32	Y32	Z32	X33	Y33	Z33	X34	Y34	Z34	X35	Y35	Z35	X36	Y36	Z36	X37	Y37	Z37	X38	Y38	Z38	X39	Y39	Z39	X40	Y40	Z40	X41	Y41	Z41	X42	Y42	Z42	X43	Y43	Z43	X44	Y44	Z44	X45	Y45	Z45	X46	Y46	Z46	X47	Y47	Z47	X48	Y48	Z48	X49	Y49	Z49	X50	Y50	Z50	X51	Y51	Z51	X52	Y52	Z52	X53	Y53	Z53	X54	Y54	Z54	X55	Y55	Z55	X56	Y56	Z56	X57	Y57	Z57	X58	Y58	Z58	X59	Y59	Z59	X60	Y60	Z60	X61	Y61	Z61	X62	Y62	Z62	X63	Y63	Z63	X64	Y64	Z64	X65	Y65	Z65	X66	Y66	Z66	X67	Y67	Z67	X68	Y68	Z68	X69	Y69	Z69	X70	Y70	Z70	X71	Y71	Z71	X72	Y72	Z72	

202	1.675	2446.805	859.65103	-201.189	2480.72885966735	840.3566448615971	-238.19004952553396	2408.620725064053	435.608946755449	-264.9115820588113	2500.3850360251427	78.92819561063688	-413.2699622794814	2494.7474755896314	-24.38587605705924	-280.6790072812336	2419.58432378646	850.1886130776929	-150.7093058880223	2295.386013928738	461.16662139190606	-61.50496432211787	2219.0797343355603	81.0499826574874	89.11187028624146	2282.60107191326	23.621765902472855	256.81665523225934	2415.3939027562647	986.4535530630627	-257.86189623686096	2370.7816546177646	1062.3166650767764	-298.15968777200203	2319.172327194676	1138.1871227246365	-339.58760086217717	2261.9083136687564	1204.8568337682836	-378.7709166002253	2199.196597798559	1275.1297478218942	-416.6277464674836	2154.716742917023	1348.5191944093058	-380.5277608646406	2133.1817073266875	1442.4235801896011	-256.9746456641173	2224.5709466046856	1252.4029816199532	-415.3986952960982	2249.7257351159174	1245.4789943681317	-448.48870628419843	2331.5719360733747	1102.9469240160934	-391.22333411056013	2363.958053048168	1093.5416408556084	-441.16107997115256	2372.008985053692	1117.825534480289	-442.4543377635329	2375.94149286486	1132.8601348995253	-452.80784967122133	2378.843258962805	1140.1960038235457	-460.1559817252926	2381.4019189584646	1143.630345215005	-466.3998077127933	2373.960455550242	1109.084248651051	-442.2118650451534	2387.13268407353	1120.0603555214793	-448.03541755130544	2392.945288703379	1126.2773499872762	-456.65836563985266	2393.562950160432	1131.0637086901695	-463.96366108793785	2392.053274945678	1135.64679248326	-471.32181454845613	2373.7863517496667	1100.110057797361	-442.6015903174457	2386.5409303042434	1105.9620790580298	-448.491205507151	2392.813748950861	1111.5245547981851	-457.9388042639476	2393.525391229302	1116.7129599025031	-466.770728072819	2391.8572218745126	1121.4427245825755	-474.8308053806697	2373.3649540972915	1093.4858212415006	-442.6839763789553	2384.5402318272795	1092.9687595867963	-447.90401572632567	2389.915699637211	1096.5593488100503	-456.1688743395057	2390.553290471754	1100.8960833292167	-464.70406130802394	2388.961644834299	1105.0267527898197	-472.2901938228157	2372.2003297012407	1085.5635507065006	-442.9595594870709	2381.86314143885	1080.1957983240222	-447.7703259239296	2385.9751482721194	1081.1111770767252	-454.41334408774867	2386.347107096014	1083.3263630141525	-460.6509552960621	2384.8835856847027	1086.4398605974407	-467.3779506306492	2215.3787809307983	1253.241225114823	-392.4389466123169	2205.2309239799847	1229.5124211838206	-352.4962333373731	2258.4800007377435	1123.8037996468267	-406.4707847146315	2325.542458837418	1096.5247849768573	-378.6772961518931	2328.5593247861207	1119.1998740878446	-380.65144804470515	2339.5209525084233	1121.980862967155	-390.0502836909267	2347.2233398637936	1121.1768699089496	-397.8273642215747	2353.703268522928	1118.162037490053	-405.3644936441605	2328.347780583391	1112.9249766464188	-384.96538734171116	2336.0720190426114	1121.4599825583357	-400.3682876320736	2345.3714444780353	1119.551246203451	-412.59686449126184	2352.6515140960955	1115.6269074775491	-418.82946329083404	2359.6880863265965	1110.532080718324	-423.06413737987776	2328.4523361540687	1104.8006752011029	-387.85115177225026	2336.041749948771	1108.7332588311538	-404.4351597236324	2346.182917224805	1105.5409847892477	-418.11166559414005	2354.963004506032	1100.2740015557324	-425.7907122200501	2362.6608074528963	1094.440506545323	-430.50181967772613	2328.291230361153	1098.9065272641312	-389.4926729275382	2334.8422424801247	1097.500071212848	-405.76789261033866	2343.6632851477507	1093.5767796752411	-418.0023448845619	2352.12279272839	1087.8904719557588	-425.57611907138113	2359.356135084522	1082.1184008177104	-430.0847586077313	2328.180008110435	1091.3659157340855	-390.9715612762823	2333.995451559166	1085.6429021153351	-406.80166596787956	2341.0025812317313	1080.7270179583081	-417.01742830078206	2347.1456859774653	1075.7211353550706	-422.74438962949364	2353.5375361755164	1070.114074237849	-426.8549214353915
203	1.683	2446.805	859.65103	-201.189	2478.7273399353585	839.2817047399864	-239.4608175750253	2406.3594689772835	434.6943387297196	-266.5524029376692	2498.040555131881	77.52374057542634	-413.76056700597195	2492.9573589282604	-25.91073915481626	-281.2166621544522	2421.4794773858484	851.1690332682798	-149.56091465375363	2297.2002015951275	462.20122167677897	-60.231432384647526	2221.059075718614	82.05878383117567	90.50001261062773	2284.6342296807115	24.847612447931773	258.2706846643521	2415.978600658784	986.93334493896	-257.24744229168846	2371.1545378475694	1062.7453998474582	-297.39205159504	2319.3772616270426	1138.5627464885085	-338.6910499184008	2262.1557986050016	1205.2909521089819	-377.83736975986557	2199.6216475675346	1275.8124612483034	-415.6030228968666	2155.1683764907825	1349.2776757553215	-379.56773383468476	2133.8556964355607	1443.3195381169958	-256.077071192971	2224.924692925307	1253.0484452683045	-414.327442829046	2249.988604761873	1246.4479246438955	-447.16850348993785	2333.04064283295	1104.6580367621873	-389.6823744355717	2366.385974505225	1096.7554513493708	-439.34406726984685	2374.565198008587	1121.0753023378365	-440.6575907361693	2378.6144433556665	1136.0530609586438	-451.0089057031599	2381.574685271976	1143.3325140677666	-458.3513867669845	2384.162570847846	1146.705425777926	-464.5869820042946	2376.4419618429065	1112.281111451861	-440.4034051324865	2389.631654098507	1123.1510256296874	-446.21958255489466	2395.48135480502	1129.272084508192	-454.8310210801399	2396.153001812564	1134.0086575037128	-462.12959206032133	2394.708868755129	1138.5571775665558	-469.48246596965004	2376.206364047833	1103.2637923195127	-440.7818792872711	2388.944711369064	1108.9889176922688	-446.6582209066621	2395.2498678448255	1114.4413378801996	-456.091790279893	2396.022734163651	1119.5670958611306	-464.9148939114695	2394.424382687374	1124.257792047477	-472.96885395650753	2375.7406768605165	1096.6118905370727	-440.8565452318659	2386.8617913254843	1095.9573597342905	-446.05808656556184	2392.257156606116	1099.446732630163	-454.30924019910145	2392.9494047684384	1103.7202275149693	-462.8351313018134	2391.421318943942	1107.8128279354366	-470.4151375812774	2374.5276421366298	1088.6600820141684	-441.1231496161102	2384.1096002789877	1083.1483105271461	-445.91154357774303	2388.2248469715187	1083.9749774476074	-452.5413532972613	2388.630531413732	1086.1403329339473	-458.77110906959825	2387.219780384919	1089.2179746366228	-465.4920578410212	2215.755671165527	1253.7874333741365	-391.51752973758585	2206.014499787613	1230.5480729046121	-351.6760802553888	2258.690395482257	1124.2624778424954	-404.50088426043266	2326.9337425539557	1096.639584698145	-378.3519181045124	2330.048536211949	1119.4871683769131	-380.36011729853067	2341.109891795234	1122.3831256654676	-389.74154602006655	2348.879810715182	1121.6480986778806	-397.5153212781335	2355.4144000694923	1118.6812640146632	-405.0572429274962	2329.8400216940195	1113.1933733883423	-384.71785003512997	2337.707469756073	1121.900034686951	-400.2331662575244	2347.1016634368893	1120.0837143202234	-412.4915583581476	2354.428415589014	1116.1977064222206	-418.70021323596416	2361.495368461412	1111.1217071889973	-422.8864135341576	2329.934142310565	1105.0316269447455	-387.62138205784595	2337.657600599263	1109.1113953480296	-404.32466298428267	2347.9003320236607	1106.0144298911289	-418.03562255583245	2356.7358515374053	1100.7910351390567	-425.6867023455503	2364.4664697307408	1094.976852380849	-430.345218364508	2329.762079385112	1099.1068802501507	-389.2731620924046	2336.423904561977	1097.806458070831	-405.66584636487767	2345.3313700545477	1093.960352332038	-417.9320980797633	2353.843228838856	1088.3129613275096	-425.4798318451799	2361.106897694589	1082.5575629968428	-429.93946733483006	2329.633561869438	1091.5241709518477	-390.75611033941004	2335.540244490718	1085.8733029871403	-406.6984138562362	2342.612816825828	1081.0095720606841	-416.9418802011129	2348.7922897407757	1076.0274107869295	-422.65093070822513	2355.209955789801	1070.4324327755724	-426.7186780107852
204	1.692	2446.805	859.65103	-201.189	2477.1363388908135	838.4337393952405	-240.444729912279	2404.190012851898	434.09625320808203	-268.0366876280523	2495.779318713117	76.1501563943056	-413.32967760095374	2490.933169290604	-27.347270159649863	-280.95492295800096	2422.9902192227273	851.9471122409564	-148.66670511338586	2298.4500850272893	463.0855995448925	-59.172172689876966	2222.671641921504	82.90608626862956	91.77104082643696	2286.1601643621884	25.985323026538346	259.69690729430454	2416.4246660744943	987.2913912273589	-256.79369306567764	2371.441584184667	1063.0724768342168	-296.8112831360314	2319.537420820676	1138.849226981415	-338.0117260131704	2262.3510147659554	1205.5983711290355	-377.1573129009182	2200.0826225131987	1276.45233705333	-414.84978034312047	2155.7842670834934	1350.1036771395816	-378.82810610812584	2134.915048205332	1444.28968772583	-255.3496431366646	2225.376763579668	1253.7294104037971	-413.4860499204406	2250.566168914337	1247.4856981829223	-446.14057516389437	2335.7632683066136	1106.3965706586155	-389.3311072843221	2372.672092976471	1103.4312456094658	-439.30258505890185	2380.8428663009904	1128.4051615543403	-440.17153610362334	2385.1527900889505	1143.8499374115122	-450.2756211525485	2388.332339148954	1151.4244936812415	-457.50252479823297	2391.135363022496	1155.0176493703532	-463.6901867446601	2382.840072933063	1119.5832948623138	-440.07141574682674	2396.402421913251	1131.2108345178292	-445.68828396477903	2402.5871848838847	1137.7506670465673	-454.2038869502165	2403.4490209699047	1142.6538098420542	-461.43576917792524	2402.1500859230177	1147.2769363044226	-468.7286500469035	2382.697832896681	1110.4525117697826	-440.61279207915135	2395.850136435382	1116.855264175182	-446.3828396245766	2402.532114977737	1122.7470863023543	-455.73402551231396	2403.53981266587	1128.0653733425863	-464.4873215747183	2402.1029482493504	1132.8336087417217	-472.480816883664	2382.288146002112	1103.702172639675	-440.8075330222498	2393.8275468885404	1103.572564588394	-446.01773631950203	2399.5621544959977	1107.4258926006169	-454.21994011917366	2400.486658754206	1111.8749880493228	-462.69063200978644	2399.113129987407	1116.035704233837	-470.2195357628467	2381.1323847461317	1095.6066476530286	-441.2191267582408	2391.13192056048	1090.4915184091442	-446.10443776053376	2395.533855891377	1091.5776348680984	-452.73066631741597	2396.116220688886	1093.8556024392753	-458.93739156561026	2394.8465682044707	1096.9846774607036	-465.62298794909486	2216.0396329028263	1254.1536794006097	-390.88165934032077	2206.1250316685764	1230.4392026891946	-351.84066153461055	2259.9409301092674	1125.0670165342274	-405.05736114560153	2331.27510724766	1100.4153817561307	-379.99031007058886	2334.9181250152988	1123.911401087165	-381.8891913825391	2346.202248716221	1127.2321612880048	-391.3081591973398	2354.0653104869098	1126.7918253836785	-399.1662211247271	2360.6245190917316	1124.069685601537	-406.828151110863	2334.554552413407	1117.7073733750726	-386.44914636928405	2342.681383272129	1127.3891641003122	-402.3055143928863	2352.156210652719	1126.067885124628	-414.7807785630228	2359.5086403874425	1122.3141512605032	-421.03920215233387	2366.5803508006306	1117.229261705631	-425.209220588629	2334.466287739482	1109.4998598039128	-389.4979731443703	2342.3441228349475	1114.5060401852709	-406.61250188107255	2352.6498097490003	1111.9398280473188	-420.5781508164972	2361.5042960490578	1106.871490928412	-428.2979310576447	2369.2342835066793	1101.0453810791544	-432.9429493359987	2334.1594145856297	1103.5199464142806	-391.24435838693427	2340.8445016980445	1103.0078820931662	-408.0896411865872	2349.7810023694237	1099.613262622731	-420.59566575413305	2358.2974371667547	1094.1095286161835	-428.21910929123084	2365.554010296764	1088.3401145492987	-432.67052712961663	2333.8628040924154	1095.8292525638526	-392.8212949202131	2339.6894908799713	1090.8420824743935	-409.2389760992717	2346.7449013120586	1086.3190780323023	-419.7002068109764	2352.9081631524873	1081.4316391080588	-425.47694319631177	2359.3082933847936	1075.8184534299864	-429.54458455829786
205	1.7	2446.805	859.65103	-201.189	2476.4631093979774	838.1053860223537	-240.77314135219078	2403.159540687563	433.9359400421404	-268.67784109440953	2494.834596942761	75.51716874119182	-412.5914111881563	2490.0821560593063	-28.04292111470333	-280.47433786486505	2423.635172818877	852.2566771884808	-148.3588745299647	2298.8458868536736	463.49811743927535	-58.66555359010229	2223.377491986167	83.25572134552546	92.37390348282521	2286.7625541661837	26.50554559577683	260.4228110557284	2416.588698539183	987.3938986813475	-256.68295382276256	2371.5832637256012	1063.1965497252074	-296.6383558572419	2319.668341266906	1138.9920707747096	-337.7908645182979	2262.5189046292617	1205.7607891869284	-376.94074628517495	2200.4874321050715	1276.8995512276651	-414.57804071298114	2156.3613119411416	1350.7429588786435	-378.55146790570325	2135.9398375749324	1445.0518386849267	-255.07147635453924	2225.7742888836865	1254.2211686000603	-413.1250371053484	2251.0033814576122	1248.0433409426923	-445.64963144895285	2338.0275573197787	1107.523488668831	-389.55260421034916	2378.64301370844	1110.089469398632	-439.8233635709335	2386.684207485303	1135.9252285535101	-440.03151926129055	2391.281243418124	1152.0437940282197	-449.738017706359	2394.7268189209576	1160.0575584626877	-456.76757650753484	2397.8081488137555	1163.9911869426167	-462.85876200167127	2388.885061036118	1127.09907950607	-440.14539733121313	2402.898182550862	1139.8208888167776	-445.4198524934933	2409.510670698367	1146.9927293432286	-453.75319295117987	2410.6122063683156	1152.157247419917	-460.8642901618062	2409.4939859343044	1156.907982626899	-468.052161420248	2388.912285181156	1117.842413165794	-440.9176768457481	2402.5958881537863	1125.2444326515729	-446.4786274314055	2409.7656394346454	1131.80557806166	-455.662573240188	2411.072622623312	1137.4294539853006	-464.2853356208018	2409.838400240131	1142.3325767598242	-472.17131367275095	2388.6101857974872	1110.976552781137	-441.28417204000226	2400.7172682027835	1111.646112809244	-446.4557367409999	2406.8976922076245	1116.0604680666418	-454.5448506021732	2408.1218632496	1120.7924502895028	-462.9069871881682	2406.944072584131	1125.0743693781214	-470.34302072417984	2387.5703754945157	1102.7056503886024	-441.9045665017004	2398.1600793645575	1098.2202348059745	-446.88265472527246	2402.9487942228625	1099.7172184215372	-453.4694788072823	2403.7641448582617	1102.1829621591667	-459.62176665590346	2402.676176430991	1105.408717929353	-466.2393340523387	2216.2848603073335	1254.3562576615427	-390.7187447187865	2205.9997352165938	1229.794822502246	-352.72479744108375	2261.598604148312	1126.0612125215682	-407.0272474891976	2335.137595494671	1105.608089926764	-381.7579273861131	2339.3813544462882	1129.8116778050085	-383.47232801663534	2350.855700832184	1133.5860503505785	-392.9154116577377	2358.7752920151897	1133.4692317538702	-400.85469833749795	2365.316661424367	1131.0233181767214	-408.6394576039641	2338.826455575029	1123.7416000977487	-388.24469322423136	2347.185641576815	1134.5571417735794	-404.38970496680827	2356.684451061127	1133.8020961601949	-417.0744560252585	2364.0200247623015	1130.1839364766827	-423.3929683385803	2371.0563581510337	1125.0652590597417	-427.5654067296222	2338.517008126916	1115.5047725479455	-391.4591156224277	2346.501881679175	1121.6009887555426	-408.9447455401048	2356.8036262077567	1119.6448237741506	-423.1599094928308	2365.623328123026	1114.7362993328404	-430.9622256253489	2373.3075828113533	1108.871394022255	-435.6147735169329	2338.0488887676956	1109.477755909381	-393.3155196057938	2344.6927065797845	1109.9091139736981	-410.5900297018554	2353.5948136579973	1107.0364716641698	-423.33433144199915	2362.0612613630324	1101.6817142318957	-431.0484334526678	2369.2670415995863	1095.873371005013	-435.5121615675457	2337.552235145999	1101.6799386682248	-395.0078147636847	2343.2209968942943	1097.500908305321	-411.89170557637385	2350.200748427431	1093.376552861933	-422.57430982993105	2356.3042695573445	1088.5884259455725	-428.4319619649356	2362.646011879136	1082.9353732680345	-432.51901934550756
